<?xml version="1.0" encoding="iso-8859-1"?>
<!-- Generator: Adobe Illustrator 19.0.0, SVG Export Plug-In . SVG Version: 6.00 Build 0)  -->
<svg version="1.1" id="Capa_1" xmlns="http://www.w3.org/2000/svg" xmlns:xlink="http://www.w3.org/1999/xlink" x="0px" y="0px"
	 viewBox="0 0 512 512" style="enable-background:new 0 0 512 512;" xml:space="preserve">
<g>
	<g>
		<path d="M511.968,292.001c0.001-136.264-105.464-245.207-235.965-255.227V20c0-11.046-8.953-20-19.997-20s-19.997,8.954-19.997,20
			v16.774C105.448,46.799,0.044,155.801,0.044,292c0.207,0.894-2.153,15.308,11.079,21.901c6.789,3.381,14.907,2.634,20.961-1.936
			c53.582-40.432,145.499-43.118,203.925-5.54V457c0,8.271-6.728,15-14.998,15c-8.27,0-14.998-6.729-14.998-15v-31
			c0-11.046-8.953-20-19.997-20c-11.044,0-19.997,8.954-19.997,20v31c0,30.327,24.669,55,54.992,55s54.992-24.673,54.992-55V306.426
			c58.51-37.633,150.423-34.832,203.925,5.54c6.01,4.535,14.123,5.342,20.961,1.936
			C514.116,307.311,511.733,293.016,511.968,292.001z M256.006,271.724c-61.586-38.82-149.122-41.437-213.581-12.053
			C57.673,157.454,145.971,76,256.006,76c110.089,0,198.341,81.508,213.581,183.671
			C405.175,230.309,317.631,232.879,256.006,271.724z"/>
	</g>
</g>
<g>
</g>
<g>
</g>
<g>
</g>
<g>
</g>
<g>
</g>
<g>
</g>
<g>
</g>
<g>
</g>
<g>
</g>
<g>
</g>
<g>
</g>
<g>
</g>
<g>
</g>
<g>
</g>
<g>
</g>
</svg>
